<?xml version="1.0" encoding="UTF-8"?>
<svg xmlns="http://www.w3.org/2000/svg" xmlns:xlink="http://www.w3.org/1999/xlink" width="0" height="0">
<symbol id="mortage-savings-check"    viewBox="0 0 64 64"    fill="none"     ><path      d="M28.0001 37.4221C27.4668 37.5998 26.9334 37.5998 26.3112 37.5998C22.5779 37.5998 19.6445 34.5776 19.6445 30.9332C19.6445 27.2887 22.6668 24.2665 26.3112 24.2665C29.9556 24.2665 32.9779 27.2887 32.9779 30.9332C32.9779 31.5554 32.889 32.1776 32.7112 32.7998"           strokeWidth="1.5"      strokeLinecap="round"      strokeLinejoin="round"    /><path      d="M23.4671 36.9776L20.5338 39.822C20.2671 40.0887 20.356 40.7109 20.8005 40.7109H22.3116V59.1998H47.556V40.7109H48.9782C49.4227 40.7109 49.6893 40.1776 49.2449 39.822L35.8227 26.8443C35.3782 26.3998 34.5782 26.3998 34.1338 26.8443L32.4449 28.4443"           strokeWidth="1.5"      strokeLinecap="round"      strokeLinejoin="round"    /><path      d="M25.8672 39.4665L34.5783 30.9332C34.7561 30.7554 34.9339 30.7554 35.1116 30.9332L43.9116 39.4665"           strokeWidth="1.5"      strokeLinecap="round"      strokeLinejoin="round"    /><path      d="M43.4676 26.4887H40.2676V31.1998L43.4676 34.222V26.4887Z"           strokeWidth="1.5"      strokeLinecap="round"      strokeLinejoin="round"    /><path      d="M20.4447 22.9332C23.3902 22.9332 25.778 20.5453 25.778 17.5998C25.778 14.6543 23.3902 12.2665 20.4447 12.2665C17.4991 12.2665 15.1113 14.6543 15.1113 17.5998C15.1113 20.5453 17.4991 22.9332 20.4447 22.9332Z"           strokeWidth="1.5"      strokeLinecap="round"      strokeLinejoin="round"    /><path      d="M29.0665 13.5111C31.5702 13.5111 33.5999 11.4815 33.5999 8.97778C33.5999 6.47409 31.5702 4.44444 29.0665 4.44444C26.5628 4.44444 24.5332 6.47409 24.5332 8.97778C24.5332 11.4815 26.5628 13.5111 29.0665 13.5111Z"           strokeWidth="2"      strokeLinecap="round"      strokeLinejoin="round"    /><path      d="M27.111 33.511C25.6888 33.511 24.5332 32.3555 24.5332 30.9332C24.5332 29.511 25.6888 28.3555 27.111 28.3555"           strokeWidth="2"      strokeLinecap="round"      strokeLinejoin="round"    /><path      d="M23.2891 30.9332H26.4002"           strokeWidth="2"      strokeLinecap="round"      strokeLinejoin="round"    /></symbol><symbol id="max-mortage"    viewBox="0 0 64 64"    fill="none"     ><path      d="M34.4893 47.8222H41.867"           strokeWidth="1.5"      strokeLinecap="round"      strokeLinejoin="round"    /><path      d="M45.1559 39.7333V25.3333H46.9336C47.467 25.3333 47.7336 24.7111 47.2892 24.2667L30.9336 8.44445C30.4003 7.91112 29.4225 7.91112 28.8892 8.44445L12.4447 24.1778C12.0892 24.5333 12.267 25.2444 12.8003 25.2444H14.5781V36.9778"           strokeWidth="1.5"      strokeLinecap="round"      strokeLinejoin="round"    /><path      d="M18.8447 23.8222L29.5114 13.5111C29.6892 13.3333 29.9558 13.3333 30.1336 13.5111L40.8892 23.8222"           strokeWidth="1.5"      strokeLinecap="round"      strokeLinejoin="round"    /><path      d="M40.2666 8H36.3555V13.7778L40.2666 17.4222V8Z"           strokeWidth="1.5"      strokeLinecap="round"      strokeLinejoin="round"    /><path      d="M52.2666 38.8446C50.1332 38.8446 48.3555 38.0446 48.3555 37.0668"           strokeWidth="1.5"      strokeLinecap="round"      strokeLinejoin="round"    /><path      d="M56.1777 34.1337C56.1777 35.1115 54.3999 35.9115 52.2666 35.9115C50.1332 35.9115 48.3555 35.1115 48.3555 34.1337"           strokeWidth="2"      strokeLinecap="round"      strokeLinejoin="round"    /><path      d="M52.2672 41.6889C51.3783 41.6889 50.5783 41.6 49.9561 41.3333"           strokeWidth="2"      strokeLinecap="round"      strokeLinejoin="round"    /><path      d="M52.2671 44.6226C51.4671 44.6226 50.6671 44.5337 50.0449 44.3559"           strokeWidth="2"      strokeLinecap="round"      strokeLinejoin="round"    /><path      d="M52.2666 33.0668C54.4266 33.0668 56.1777 32.2709 56.1777 31.2891C56.1777 30.3072 54.4266 29.5113 52.2666 29.5113C50.1065 29.5113 48.3555 30.3072 48.3555 31.2891C48.3555 32.2709 50.1065 33.0668 52.2666 33.0668Z"           strokeWidth="2"      strokeLinecap="round"      strokeLinejoin="round"    /><path      d="M56.1777 36.978V31.2891"           strokeWidth="2"      strokeLinecap="round"      strokeLinejoin="round"    /><path      d="M49.9561 47.1111C50.5783 47.3778 51.3783 47.4667 52.2672 47.4667"           strokeWidth="2"      strokeLinecap="round"      strokeLinejoin="round"    /><path      d="M48.3555 31.2891V39.9113"           strokeWidth="2"      strokeLinecap="round"      strokeLinejoin="round"    /><path      d="M60.622 44.9779C60.622 45.9556 58.8443 46.7556 56.7109 46.7556C54.5776 46.7556 52.7998 45.9556 52.7998 44.9779"           strokeWidth="2"      strokeLinecap="round"      strokeLinejoin="round"    /><path      d="M60.622 42.0447C60.622 43.0225 58.8443 43.8225 56.7109 43.8225C54.5776 43.8225 52.7998 43.0225 52.7998 42.0447"           strokeWidth="2"      strokeLinecap="round"      strokeLinejoin="round"    /><path      d="M60.622 47.8225C60.622 48.8003 58.8443 49.6003 56.7109 49.6003C54.5776 49.6003 52.7998 48.8003 52.7998 47.8225"           strokeWidth="2"      strokeLinecap="round"      strokeLinejoin="round"    /><path      d="M60.622 50.7556C60.622 51.7334 58.8443 52.5334 56.7109 52.5334C54.5776 52.5334 52.7998 51.7334 52.7998 50.7556"           strokeWidth="2"      strokeLinecap="round"      strokeLinejoin="round"    /><path      d="M56.7109 40.9779C58.871 40.9779 60.622 40.1819 60.622 39.2001C60.622 38.2182 58.871 37.4223 56.7109 37.4223C54.5509 37.4223 52.7998 38.2182 52.7998 39.2001C52.7998 40.1819 54.5509 40.9779 56.7109 40.9779Z"           strokeWidth="2"      strokeLinecap="round"      strokeLinejoin="round"    /><path      d="M52.7998 39.2001V53.6001C52.7998 54.5779 54.5776 55.3779 56.7109 55.3779C58.8443 55.3779 60.622 54.5779 60.622 53.6001V39.2001"           strokeWidth="2"      strokeLinecap="round"      strokeLinejoin="round"    /><path      d="M49.7783 47.2891C49.7783 48.2668 48.0005 49.0668 45.8672 49.0668C43.7339 49.0668 41.8672 48.3557 41.8672 47.2891"           strokeWidth="2"      strokeLinecap="round"      strokeLinejoin="round"    /><path      d="M49.7783 44.4446C49.7783 45.4224 48.0005 46.2224 45.8672 46.2224C43.7338 46.2224 41.9561 45.4224 41.9561 44.4446"           strokeWidth="2"      strokeLinecap="round"      strokeLinejoin="round"    /><path      d="M45.7783 43.2891C47.9383 43.2891 49.6894 42.4931 49.6894 41.5113C49.6894 40.5294 47.9383 39.7335 45.7783 39.7335C43.6183 39.7335 41.8672 40.5294 41.8672 41.5113C41.8672 42.4931 43.6183 43.2891 45.7783 43.2891Z"           strokeWidth="2"      strokeLinecap="round"      strokeLinejoin="round"    /><path      d="M41.8672 41.5113V50.1335C41.8672 51.1113 43.645 51.9113 45.7783 51.9113C47.9116 51.9113 49.6894 51.1113 49.6894 50.1335V41.5113"           strokeWidth="2"      strokeLinecap="round"      strokeLinejoin="round"    /><path      d="M33.2446 43.6445H3.55566L5.33344 36.9779H31.4668L33.2446 43.6445Z"           strokeWidth="2"      strokeLinecap="round"      strokeLinejoin="round"    /><path      d="M33.2446 43.6445V53.1556H3.55566V43.6445"           strokeWidth="2"      strokeLinecap="round"      strokeLinejoin="round"    /><path      d="M22.7553 53.1556H13.0664V43.6445L13.9553 36.9779H21.8664L22.7553 43.6445V53.1556Z"           strokeWidth="2"      strokeLinecap="round"      strokeLinejoin="round"    /><path      d="M23.3779 46.0445H32.6224"           strokeWidth="2"      strokeLinecap="round"      strokeLinejoin="round"    /><path      d="M23.3779 43.6445H32.6224"           strokeWidth="2"      strokeLinecap="round"      strokeLinejoin="round"    /><path      d="M23.3779 53.1556H32.6224"           strokeWidth="2"      strokeLinecap="round"      strokeLinejoin="round"    /><path      d="M23.3779 48.4445H32.6224"           strokeWidth="2"      strokeLinecap="round"      strokeLinejoin="round"    /><path      d="M23.3779 50.7556H32.6224"           strokeWidth="2"      strokeLinecap="round"      strokeLinejoin="round"    /><path      d="M3.55566 46.0445H12.7112"           strokeWidth="2"      strokeLinecap="round"      strokeLinejoin="round"    /><path      d="M3.55566 43.6445H12.7112"           strokeWidth="2"      strokeLinecap="round"      strokeLinejoin="round"    /><path      d="M3.55566 53.1556H12.7112"           strokeWidth="2"      strokeLinecap="round"      strokeLinejoin="round"    /><path      d="M3.55566 48.4445H12.7112"           strokeWidth="2"      strokeLinecap="round"      strokeLinejoin="round"    /><path      d="M3.55566 50.7556H12.7112"           strokeWidth="2"      strokeLinecap="round"      strokeLinejoin="round"    /></symbol><symbol id="kidwk"    viewBox="0 0 64 64"    fill="none"     ><path      d="M47.1996 29.9111V21.2H48.8885C49.4218 21.2 49.6885 20.5778 49.244 20.1333L33.4218 4.84444C32.8885 4.31111 31.9996 4.31111 31.4662 4.84444L15.4662 20.1333C15.1107 20.4889 15.2885 21.2 15.8218 21.2H17.5107V29.9111"           strokeWidth="1.5"      strokeLinecap="round"      strokeLinejoin="round"    /><path      d="M21.6885 19.6889L31.9996 9.64444C32.1774 9.46666 32.444 9.46666 32.6218 9.64444L43.0218 19.6889"           strokeWidth="2"      strokeLinecap="round"      strokeLinejoin="round"    /><path      d="M42.4882 13.5556V4.48889H38.666V9.55555"           strokeWidth="2"      strokeLinecap="round"      strokeLinejoin="round"    /><path      d="M34.3116 39.0667L27.0227 42.7111C25.956 43.2444 24.6227 43.1556 23.6449 42.3556L22.0449 41.1111L31.9116 32.3111C32.6227 31.6889 35.2005 31.3333 36.0894 31.6889L44.1783 33.9111L51.9116 32.2222L53.8671 42.8889L47.556 45.4667L44.4449 47.6L34.3116 39.0667Z"           strokeWidth="1.5"      strokeLinecap="round"      strokeLinejoin="round"    /><path      d="M32.6221 57.4667C34.7554 59.1556 36.711 58.5333 37.511 58.1778L46.0443 53.0222C48.5332 51.4222 47.5554 48.7556 46.4887 47.8667C45.6887 47.3333 46.2221 47.5111 46.2221 47.5111"           strokeWidth="1.5"      strokeLinecap="round"      strokeLinejoin="round"    /><path      d="M31.3778 32.7556L28.0889 31.3333C27.1112 30.9778 26.0445 31.0667 25.0667 31.5111L18.0445 33.3778L13.0667 32.5778L11.8223 43.7778L17.5112 44.7556L20.0889 46.9778"           strokeWidth="1.5"      strokeLinecap="round"      strokeLinejoin="round"    /><path      d="M26.8447 56.9333L33.8669 49.8222"           strokeWidth="1.5"      strokeLinecap="round"      strokeLinejoin="round"    /><path      d="M23.8223 53.8222L30.0445 47.6"           strokeWidth="2"      strokeLinecap="round"      strokeLinejoin="round"    /><path      d="M21.1553 51.3333L25.3331 46.9778"           strokeWidth="2"      strokeLinecap="round"      strokeLinejoin="round"    /><path      d="M21.2441 46.0889C21.6886 45.5556 22.3997 45.4667 23.0219 45.7333L25.4219 46.8L26.8441 45.5556C27.1997 45.2 27.733 45.2 28.1775 45.3778L30.6663 46.6222L33.9552 49.5556L34.5775 51.8667C34.8441 53.0222 34.5775 54.2667 33.7775 55.1555L31.3775 57.8222C30.3997 58.8889 28.7997 58.9778 27.733 58.0889L19.9997 51.2444C18.933 50.3556 18.8441 48.6667 19.733 47.6L21.2441 46.0889Z"           strokeWidth="2"      strokeLinecap="round"      strokeLinejoin="round"    /></symbol><symbol id="interest-terms"    viewBox="0 0 64 64"    fill="none"     ><path      d="M47.2005 37.5111V22.5778H48.8894C49.4228 22.5778 49.6894 21.9556 49.245 21.5111L33.4228 6.22222C32.8894 5.68889 32.0005 5.68889 31.4672 6.22222L15.4672 21.5111C15.1117 21.8667 15.2894 22.5778 15.8228 22.5778H17.5117V44.3556H23.3783"           strokeWidth="1.5"      strokeLinecap="round"      strokeLinejoin="round"    /><path      d="M21.6895 21.0667L32.0006 11.0222C32.1783 10.8444 32.445 10.8444 32.6228 11.0222L43.0228 21.0667"           strokeWidth="1.5"      strokeLinecap="round"      strokeLinejoin="round"    /><path      d="M42.4892 5.77778H38.667V11.3778L42.4892 14.9333V5.77778Z"           strokeWidth="1.5"      strokeLinecap="round"      strokeLinejoin="round"    /><path      d="M39.1112 46.4889L31.2001 49.4222C30.1334 49.8667 28.889 49.8667 27.8223 49.4222C23.6445 47.9111 15.6445 44.9778 13.0668 44C9.86675 42.7556 6.48898 45.7778 9.42231 47.3778C12.4445 48.9778 27.5556 57.3333 27.5556 57.3333C28.5334 57.8667 29.689 58.1333 30.8445 58.1333H36.0001C36.8001 58.1333 37.5112 58.0444 38.2223 57.7778L48.889 54.0444L53.8668 54.1333V39.6444L43.7334 36.8C42.489 36.3556 41.0668 36.4444 39.8223 36.9778L28.889 41.3333C24.1779 43.5556 29.3334 46.4 29.3334 46.4L39.1112 44.4444V46.4889Z"           strokeWidth="1.5"      strokeLinecap="round"      strokeLinejoin="round"    /><path      d="M28.889 27.4667C29.7236 27.4667 30.4002 26.7901 30.4002 25.9556C30.4002 25.121 29.7236 24.4444 28.889 24.4444C28.0545 24.4444 27.3779 25.121 27.3779 25.9556C27.3779 26.7901 28.0545 27.4667 28.889 27.4667Z"           strokeWidth="1.5"      strokeLinecap="round"      strokeLinejoin="round"    /><path      d="M35.9115 34.4889C36.7461 34.4889 37.4226 33.8123 37.4226 32.9778C37.4226 32.1432 36.7461 31.4667 35.9115 31.4667C35.0769 31.4667 34.4004 32.1432 34.4004 32.9778C34.4004 33.8123 35.0769 34.4889 35.9115 34.4889Z"           strokeWidth="2"      strokeLinecap="round"      strokeLinejoin="round"    /><path      d="M27.3779 34.4L37.1557 24.6222"           strokeWidth="2"      strokeLinecap="round"      strokeLinejoin="round"    /></symbol><symbol id="arx"    viewBox="0 0 72 72"    fill="none"     ><path      d="M44.1046 35.2998C47.3046 41.2998 41.8046 47.5998 36.4046 47.5998C31.0046 47.5998 26.4046 40.7998 29.3046 35.2998L36.4046 23L44.1046 35.2998Z"           strokeWidth="2"      strokeLinecap="round"      strokeLinejoin="round"    /><path      d="M57.5046 35.3999L46.5046 53.1999L53.7046 52.0999L50.9046 64.7999L61.4046 46.6999L54.5046 47.5999L57.5046 35.3999Z"           strokeWidth="2"      strokeLinecap="round"      strokeLinejoin="round"    /><path      d="M15.6046 15C15.6046 15 9.10459 17.7 10.1046 24.3C10.7046 28.4 14.3046 31.5 18.1046 31.7C22.8046 32 29.0046 27.4 27.6046 19.2C26.0046 9.9 15.9046 8 15.9046 8C15.9046 8 20.9046 13.5 20.5046 17.2C20.3046 19.5 18.3046 20.6 16.5046 19.9C13.6046 18.9 15.6046 15 15.6046 15Z"           strokeWidth="2"      strokeLinecap="round"      strokeLinejoin="round"    /></symbol><symbol id="bbwc"    viewBox="0 0 64 64"    fill="none"     ><path      d="M38.4 47.258V40.3247H35.2889V44.058L31.5556 40.3247C31.2 39.9692 30.8444 39.9692 30.5778 40.3247L20 50.7247H23.1111V60.4136H29.1556H32.8889H38.8444V50.7247H41.8667L38.4 47.258Z"           strokeWidth="1.5"      strokeLinecap="round"      strokeLinejoin="round"    /><path      d="M38.6663 27.3469L36.3552 26.3691C35.4663 26.0136 35.1108 25.0358 35.4663 24.1469L37.7774 18.7247C38.133 17.8358 39.1108 17.4803 39.9997 17.8358L42.3108 18.8136M48.3552 19.6136L49.6886 16.5025C50.2219 15.258 49.5997 13.7469 48.3552 13.2136L42.3108 18.8136L38.7552 27.258L47.4663 30.9025C48.2663 31.258 49.1552 30.9914 49.5997 30.2803L53.5997 23.7914C54.0441 22.9914 53.8663 22.0136 53.0663 21.4803C52.9774 21.3914 52.8886 21.3914 52.7997 21.3914L48.3552 19.6136Z"           strokeWidth="1.5"      strokeLinecap="round"      strokeLinejoin="round"    /><path      d="M63.0635 15.0707L37.9277 4.44444L28.0283 27.8609L53.1641 38.4871L63.0635 15.0707Z"           strokeWidth="1.5"      strokeLinecap="round"      strokeLinejoin="round"    /><path      d="M19.0222 13.8358L21.4222 13.1247C22.4888 12.7692 23.5555 13.3025 23.9999 14.2803L25.8666 20.5025C26.0444 21.5692 25.4222 22.6358 24.3555 22.9025L21.9555 23.5247M16.3555 27.1692L17.4222 30.7247C17.8666 32.1469 19.4666 33.0358 20.8888 32.5914L21.9555 23.5247L18.9333 13.8358L8.97772 16.858C8.08883 17.1247 7.5555 18.0136 7.64439 18.9025L8.88883 27.258C9.06661 28.2358 9.9555 28.9469 11.0222 28.858C11.1111 28.858 11.1999 28.858 11.2888 28.7692L16.3555 27.1692Z"           strokeWidth="1.5"      strokeLinecap="round"      strokeLinejoin="round"    /><path      d="M34.0442 30.5469L34.3998 31.8803L8.35534 39.8803L0.888672 15.5247L26.9331 7.5247L31.022 20.6803"           strokeWidth="1.5"      strokeLinecap="round"      strokeLinejoin="round"    /></symbol></svg>
